<svg xmlns="http://www.w3.org/2000/svg" pointer-events="none" class="leaflet-zoom-animated" width="1452" height="874" viewBox="-778 -293 1452 874" style="transform: translate3d(-778px, -293px, 0px);"><g><path class="leaflet-interactive" stroke="black" stroke-opacity="1" stroke-width="2" stroke-linecap="round" stroke-linejoin="round" fill="#fff" fill-opacity="0.2" fill-rule="evenodd" d="M-162 221L-174 235L-197 254L-266 294L-264 301L-259 306L-257 321L-248 335L-242 341L-237 355L-231 359L-218 364L-197 385L-188 391L-184 391L-183 393L-169 395L-165 397L-162 396L-156 398L-146 398L-128 396L-102 388L-106 395L-105 399L-107 401L-107 413L-105 417L-102 417L-102 415L-100 415L-99 413L-90 412L-89 410L-83 408L-85 400L-84 397L-79 400L-79 406L-76 409L-78 410L-79 414L-73 421L-73 423L-77 427L-76 429L-72 430L-69 439L-72 441L-72 444L-64 450L-64 457L-59 467L-54 469L-44 456L-32 436L-23 428L-18 431L-9 428L-4 428L0 431L2 425L6 424L11 416L18 423L18 417L22 415L22 401L20 392L17 388L13 386L13 383L17 379L19 381L21 379L27 379L32 383L39 377L43 376L43 369L45 369L47 366L55 364L62 364L69 367L69 369L72 371L74 369L75 371L78 371L79 368L81 369L87 365L87 362L89 359L91 359L91 350L88 342L90 333L92 333L87 326L88 325L86 327L82 326L82 324L79 325L75 323L75 320L80 316L80 312L84 309L97 309L101 306L121 311L133 309L136 307L136 305L141 308L143 302L145 301L150 301L152 303L151 302L155 299L155 297L153 297L155 297L153 293L154 289L152 289L153 285L151 283L151 267L149 265L150 253L157 251L158 249L156 249L159 243L158 242L160 242L163 249L165 250L169 245L178 249L182 249L183 247L185 247L185 244L182 242L180 236L179 235L177 236L178 238L175 238L173 234L175 229L174 221L170 220L169 219L171 219L166 216L166 211L171 210L168 207L181 202L179 200L181 199L182 195L185 192L180 188L183 185L186 185L186 182L181 181L180 177L193 174L195 170L198 167L201 167L201 165L205 162L205 164L211 163L210 161L214 156L217 163L219 161L220 163L222 163L224 159L226 160L229 158L234 158L238 151L242 153L242 151L244 152L243 154L245 154L244 153L252 148L262 131L232 104L180 45L164 41L149 32L112 33L102 31L96 28L84 10L55 -56L50 -60L47 -67L40 -69L-9 -61L-23 -65L-54 -78L-68 -80L-96 -63L-102 -57L-103 -44L-101 -36L-95 -31L-99 -24L-98 -22L-97 -23L-95 -21L-91 -21L-74 -14L-67 -13L-67 -9L-59 -5L-54 7L-50 7L-44 13L-44 18L-47 21L-47 25L-44 28L-44 30L-39 31L-38 29L-35 28L-35 31L-30 28L-23 37L-19 49L-21 50L-21 52L-25 53L-26 56L-24 62L-19 64L-21 68L-27 71L-27 73L-29 72L-31 74L-32 76L-30 83L-34 86L-22 89L-20 92L-23 95L-20 97L-22 100L-19 104L-22 106L-27 105L-30 107L-31 110L-35 111L-36 108L-40 110L-37 122L-32 120L-30 121L-30 117L-25 117L-21 121L-19 133L-17 134L-17 143L-19 146L-22 142L-33 150L-35 150L-38 155L-35 162L-36 164L-44 168L-46 167L-49 169L-50 172L-55 172L-57 176L-62 175L-70 177L-80 175L-78 178L-81 176L-82 177L-83 175L-161 219z"/><path name="虎丘区" class="leaflet-interactive" stroke="#333" stroke-opacity="1" stroke-width="1" stroke-linecap="round" stroke-linejoin="round" stroke-dasharray="1,6" fill="#eee" fill-opacity="0.5" fill-rule="evenodd" d="M-15 256L-23 255L-33 228L-45 215L-41 212L-41 209L-36 204L-38 201L-36 199L-37 196L-35 196L-32 192L-35 190L-36 187L-39 190L-51 196L-55 192L-60 192L-63 189L-66 191L-64 194L-68 195L-68 198L-70 197L-77 201L-80 199L-84 200L-95 196L-122 197L-161 219L-162 221L-142 241L-130 244L-116 239L-108 234L-108 232L-102 231L-102 229L-99 228L-87 228L-87 230L-84 231L-84 235L-81 237L-81 239L-76 240L-73 232L-71 231L-69 233L-65 233L-62 235L-62 240L-59 241L-58 245L-47 242L-43 251L-39 253L-37 251L-34 251L-32 256L-33 257L-30 261L-31 266L-29 267L-27 273L-25 270L-26 268L-23 267L-21 264L-21 260L-18 257L-15 257z"/><path name="吴中区" class="leaflet-interactive" stroke="#333" stroke-opacity="1" stroke-width="1" stroke-linecap="round" stroke-linejoin="round" stroke-dasharray="1,6" fill="#eee" fill-opacity="0.5" fill-rule="evenodd" d="M-162 221L-174 235L-197 254L-266 294L-264 301L-259 306L-257 321L-248 335L-242 341L-237 355L-231 359L-218 364L-197 385L-190 390L-184 391L-183 393L-169 395L-165 397L-162 396L-156 398L-146 398L-128 396L-109 391L-102 388L-101 385L-83 378L-61 345L-34 325L-21 300L-19 298L-16 298L-10 291L-11 281L-9 278L-6 277L-8 271L-6 271L-6 269L-4 269L-3 273L2 273L5 283L7 284L8 287L11 283L16 281L24 281L26 289L34 280L37 272L40 272L47 277L44 282L45 284L52 287L52 289L60 293L61 287L68 286L69 283L76 276L80 276L83 278L91 273L89 266L86 265L87 259L85 258L83 252L85 251L83 251L83 247L85 247L80 242L74 225L71 211L70 212L70 210L68 210L69 209L61 209L65 181L44 185L40 189L31 194L26 203L20 201L18 203L18 201L16 200L16 203L1 217L-1 223L-3 224L1 241L-1 251L-6 250L-7 248L-14 249L-13 252L-16 254L-15 256L-18 257L-18 259L-20 260L-22 266L-26 268L-26 273L-29 267L-31 266L-30 262L-33 257L-31 256L-33 255L-33 251L-39 253L-43 251L-47 242L-57 245L-59 244L-58 241L-62 240L-62 235L-69 233L-70 231L-75 234L-76 240L-81 239L-81 237L-84 235L-84 231L-87 230L-87 228L-99 228L-102 229L-102 231L-108 231L-108 233L-116 239L-130 244L-142 241L-144 239z"/><path name="相城区" class="leaflet-interactive" stroke="#333" stroke-opacity="1" stroke-width="1" stroke-linecap="round" stroke-linejoin="round" stroke-dasharray="1,6" fill="#eee" fill-opacity="0.5" fill-rule="evenodd" d="M-3 224L-1 223L1 217L16 203L16 200L18 200L18 203L20 201L26 203L31 194L40 189L44 185L65 181L63 164L61 158L59 157L60 152L57 152L57 148L60 145L65 145L63 139L58 138L56 143L54 144L50 143L50 141L42 137L40 141L30 138L31 142L28 142L28 144L26 145L21 145L15 156L10 154L3 155L-1 151L-3 146L-5 146L-5 143L-9 143L-9 134L-14 132L-14 134L-17 134L-18 136L-17 143L-19 146L-22 142L-33 150L-35 150L-38 155L-35 162L-39 166L-44 168L-46 167L-49 169L-50 172L-55 172L-57 176L-62 175L-70 177L-80 175L-78 178L-81 176L-82 177L-83 175L-122 197L-95 196L-77 201L-74 198L-69 198L-68 195L-64 194L-66 191L-63 189L-60 192L-55 192L-52 196L-46 194L-36 187L-35 190L-32 191L-35 196L-37 196L-36 199L-38 201L-35 206L-29 208L-30 210L-27 215L-16 215L-15 219L-9 218L-7 219L-6 223L-3 223z"/><path name="姑苏区" class="leaflet-interactive" stroke="#333" stroke-opacity="1" stroke-width="1" stroke-linecap="round" stroke-linejoin="round" stroke-dasharray="1,6" fill="#eee" fill-opacity="0.5" fill-rule="evenodd" d="M-36 205L-41 209L-41 212L-45 215L-33 228L-23 255L-15 256L-16 254L-13 252L-14 250L-7 248L-1 251L1 241L-4 224L-3 223L-6 224L-7 219L-15 219L-16 215L-24 213L-27 215L-30 210L-29 209L-35 206z"/><path name="吴江区" class="leaflet-interactive" stroke="#333" stroke-opacity="1" stroke-width="1" stroke-linecap="round" stroke-linejoin="round" stroke-dasharray="1,6" fill="#eee" fill-opacity="0.5" fill-rule="evenodd" d="M-102 388L-106 395L-105 399L-107 401L-107 413L-105 417L-102 417L-102 415L-100 415L-99 413L-90 412L-89 410L-83 408L-85 400L-84 397L-79 400L-79 406L-76 409L-78 410L-79 414L-73 421L-73 423L-77 427L-76 429L-72 430L-69 439L-72 441L-72 444L-64 450L-64 457L-59 467L-54 469L-44 456L-32 436L-23 428L-18 431L-9 428L-4 428L0 431L2 425L6 424L11 416L18 423L18 417L22 415L22 401L20 392L17 388L13 386L13 383L17 379L19 381L21 379L27 379L32 383L39 377L43 376L43 369L45 369L47 366L55 364L62 364L69 367L69 369L72 371L74 369L75 371L78 371L79 368L81 369L87 365L87 362L89 359L91 359L91 350L88 342L90 333L92 333L87 326L88 325L86 327L82 326L82 324L79 325L68 316L62 314L59 306L59 302L62 302L62 296L60 293L52 289L52 287L44 282L47 277L45 275L40 272L37 272L34 280L26 289L24 281L14 282L9 285L9 287L5 283L3 273L-3 273L-4 269L-6 269L-6 271L-8 271L-6 277L-9 278L-11 281L-10 291L-16 298L-19 298L-22 302L-34 325L-61 345L-83 378L-97 383L-102 387z"/><path name="常熟" class="leaflet-interactive" stroke="#333" stroke-opacity="1" stroke-width="1" stroke-linecap="round" stroke-linejoin="round" stroke-dasharray="1,6" fill="#eee" fill-opacity="0.5" fill-rule="evenodd" d="M-17 134L-14 134L-14 132L-9 134L-9 143L-6 143L-6 146L-3 146L2 155L12 154L15 156L21 145L26 145L28 144L28 142L31 142L30 138L39 141L41 137L45 138L48 141L50 141L50 143L54 144L56 144L57 138L62 139L65 145L71 145L72 149L76 151L80 148L83 140L86 141L85 139L90 139L90 136L92 137L89 141L90 143L94 141L97 146L98 144L104 141L105 146L110 148L112 155L115 153L118 156L120 155L128 148L129 145L126 135L122 136L122 134L119 134L121 133L120 130L127 125L126 123L130 119L128 115L140 107L147 100L147 98L149 99L150 97L139 88L133 85L138 81L139 82L144 75L146 76L147 73L145 71L150 58L153 56L164 41L149 32L112 33L102 31L96 28L87 14L75 26L56 17L55 15L51 20L35 10L26 19L29 28L28 33L23 35L26 39L26 42L24 44L20 44L16 47L13 46L7 55L6 54L1 58L-1 57L-4 59L-12 58L-15 55L-21 54L-21 52L-25 53L-26 56L-24 62L-19 64L-21 68L-27 71L-27 73L-29 72L-31 74L-32 76L-30 83L-34 86L-22 89L-20 92L-23 95L-20 97L-22 100L-19 104L-22 106L-27 105L-30 107L-31 110L-35 111L-36 108L-40 110L-37 122L-32 120L-30 121L-30 117L-25 117L-21 121L-19 133z"/><path name="张家港" class="leaflet-interactive" stroke="#333" stroke-opacity="1" stroke-width="1" stroke-linecap="round" stroke-linejoin="round" stroke-dasharray="1,6" fill="#eee" fill-opacity="0.5" fill-rule="evenodd" d="M-21 52L-21 54L-15 55L-12 58L-4 59L-1 57L1 58L5 54L7 55L13 46L16 47L20 44L24 44L26 39L23 35L27 33L29 28L27 23L28 20L26 19L35 10L51 20L55 15L56 17L75 26L87 14L76 -6L55 -56L50 -60L47 -67L40 -69L-9 -61L-23 -65L-54 -78L-68 -80L-96 -63L-102 -57L-103 -44L-101 -36L-95 -31L-99 -24L-98 -22L-97 -23L-95 -21L-91 -21L-74 -14L-67 -13L-67 -9L-59 -5L-54 7L-50 7L-44 13L-44 18L-47 21L-47 25L-44 28L-44 30L-39 31L-38 29L-35 28L-35 31L-30 28L-25 33L-23 40L-20 44L-19 49L-21 50z"/><path name="昆山" class="leaflet-interactive" stroke="#333" stroke-opacity="1" stroke-width="1" stroke-linecap="round" stroke-linejoin="round" stroke-dasharray="1,6" fill="#eee" fill-opacity="0.5" fill-rule="evenodd" d="M75 322L75 320L80 316L80 312L84 309L97 309L101 306L121 311L133 309L136 307L136 305L141 308L143 302L145 301L150 301L152 303L151 302L155 299L155 297L153 297L155 297L153 293L154 289L152 289L153 285L151 283L151 267L149 265L150 253L157 251L158 249L156 249L159 243L158 242L160 242L163 249L165 250L169 245L178 249L182 249L183 247L185 247L185 244L182 242L179 235L177 236L178 238L175 238L173 234L175 229L174 221L170 220L169 219L171 219L166 216L166 211L163 202L161 202L158 198L161 192L161 190L159 190L163 187L161 183L158 181L153 186L151 186L150 182L145 185L142 182L135 181L134 177L136 174L132 172L131 167L133 167L133 155L128 157L122 154L118 156L115 153L112 155L110 148L105 146L104 141L97 145L94 141L90 143L89 141L92 137L90 136L90 139L85 139L86 141L83 140L80 148L77 151L74 151L71 145L60 145L57 148L57 152L60 152L59 157L61 158L63 164L65 181L61 208L69 209L68 210L70 210L70 212L71 211L74 225L80 242L83 246L85 246L83 247L83 251L85 251L83 252L87 260L86 265L88 265L91 269L89 275L83 278L80 276L76 276L69 283L68 286L62 287L60 290L60 293L62 295L62 302L59 302L61 314L68 316L72 319z"/><path name="太仓" class="leaflet-interactive" stroke="#333" stroke-opacity="1" stroke-width="1" stroke-linecap="round" stroke-linejoin="round" stroke-dasharray="1,6" fill="#eee" fill-opacity="0.5" fill-rule="evenodd" d="M166 211L171 210L168 207L181 202L179 200L181 199L182 195L185 192L180 188L183 185L186 185L186 182L181 181L180 177L193 174L195 170L198 167L201 167L201 165L205 162L205 164L211 163L210 161L214 156L217 163L219 161L220 163L222 163L224 159L226 160L229 158L234 158L238 151L242 153L242 151L244 152L243 154L245 154L244 153L252 148L262 131L232 104L180 45L164 41L149 61L145 71L147 73L146 76L144 75L140 81L138 81L134 85L150 97L149 99L147 98L147 100L140 107L128 115L130 119L126 123L127 125L120 130L121 133L119 134L122 134L122 136L126 135L129 144L128 148L118 156L122 154L128 157L132 155L134 160L133 167L131 167L132 172L136 174L134 176L135 181L142 182L145 185L150 182L151 186L153 186L158 181L161 183L163 187L159 189L161 190L159 200L163 202z"/></g></svg>
