<svg xmlns="http://www.w3.org/2000/svg" pointer-events="none" class="leaflet-zoom-animated" width="1452" height="874" viewBox="-778 -293 1452 874" style="transform: translate3d(-778px, -293px, 0px);"><g><path class="leaflet-interactive" stroke="black" stroke-opacity="1" stroke-width="2" stroke-linecap="round" stroke-linejoin="round" fill="#eee" fill-opacity="0.5" fill-rule="evenodd" d="M29 250L29 246L30 247L34 244L35 247L37 246L37 244L39 244L39 248L51 240L65 216L23 177L-51 94L-74 89L-92 113L-94 113L-100 131L-97 134L-99 138L-102 136L-108 145L-111 145L-118 152L-102 160L-101 164L-94 167L-95 170L-97 169L-106 181L-125 193L-121 199L-128 204L-125 207L-135 215L-135 219L-137 220L-137 222L-127 222L-127 228L-123 236L-139 252L-132 248L-124 252L-120 252L-119 250L-118 251L-119 253L-116 257L-118 260L-117 263L-118 266L-121 267L-119 273L-114 276L-116 279L-114 286L-110 288L-105 287L-100 292L-96 289L-93 289L-92 294L-87 292L-82 286L-78 289L-75 295L-80 298L-77 300L-82 312L-78 316L-75 316L-71 330L-71 328L-68 329L-64 327L-66 325L-67 326L-68 324L-50 317L-51 313L-52 314L-49 311L-50 308L-48 308L-49 307L-46 304L-44 305L-44 302L-46 302L-46 300L-49 299L-51 295L-48 295L-49 294L-45 292L-44 293L-42 289L-42 291L-42 289L-48 288L-51 285L-50 282L-43 278L-38 279L-31 276L-30 271L-16 260L-16 262L-10 262L-7 259L-9 259L-5 252L-2 253L1 261L3 261L4 258L5 261L7 261L12 255L16 257L19 253L26 254L28 251z"/></g></svg>